<svg xmlns="http://www.w3.org/2000/svg" xmlns:xlink="http://www.w3.org/1999/xlink" width="400" height="517.212" viewBox="0 0 400 517.212"><defs><style>.a{fill:azure;}.b{fill:#eff0f5;}.c{fill:#fff;}.d{fill:#ff7171;}.e{fill:#d2d0ff;}.f{fill:#080f67;}.g{fill:url(#a);}.h{fill:url(#b);}.i{fill:#cc1e97;}.j{fill:url(#c);}.k{fill:url(#d);}.l{fill:url(#e);}.m{fill:url(#f);}.n{fill:url(#g);}.o{fill:url(#h);}.p{fill:url(#i);}.q{fill:url(#j);}.r{fill:url(#k);}.s{fill:url(#l);}</style><linearGradient id="a" x1="-100.562" y1="0.5" x2="-101.562" y2="0.5" gradientUnits="objectBoundingBox"><stop offset="0" stop-color="#febbba"/><stop offset="1" stop-color="#ff928e"/></linearGradient><linearGradient id="b" x1="-116.629" y1="0.5" x2="-117.629" y2="0.5" xlink:href="#a"/><linearGradient id="c" x1="0.814" y1="0.885" x2="-0.535" y2="-1.194" xlink:href="#a"/><linearGradient id="d" x1="43.776" y1="0.04" x2="42.746" y2="1.767" xlink:href="#a"/><linearGradient id="e" x1="103.032" y1="1.716" x2="104.908" y2="-0.451" xlink:href="#a"/><linearGradient id="f" x1="-14.709" y1="0.5" x2="-15.709" y2="0.5" xlink:href="#a"/><linearGradient id="g" x1="-14.047" y1="-0.062" x2="-14.56" y2="2.428" gradientUnits="objectBoundingBox"><stop offset="0" stop-color="#09005d"/><stop offset="1" stop-color="#1a0f91"/></linearGradient><linearGradient id="h" x1="-49.423" y1="0.5" x2="-50.423" y2="0.5" xlink:href="#a"/><linearGradient id="i" x1="1.822" y1="2.461" x2="-0.027" y2="-0.204" xlink:href="#a"/><linearGradient id="j" x1="-15.096" y1="23.292" x2="-13.878" y2="24.588" xlink:href="#a"/><linearGradient id="k" x1="-10.101" y1="15.563" x2="-11.145" y2="15.563" xlink:href="#g"/><linearGradient id="l" x1="0.138" y1="0.219" x2="-5.182" y2="-4.382" xlink:href="#a"/></defs><g transform="translate(-56.897 23)"><g transform="translate(56.897 -23)"><g transform="translate(0 0)"><path class="a" d="M1361.053,874.764H1015.636a13.84,13.84,0,0,1-13.84-13.84V701.849a13.84,13.84,0,0,1,13.621-13.838l346.025-5.476a27.255,27.255,0,0,1,27.686,27.252v136.9A28.074,28.074,0,0,1,1361.053,874.764Z" transform="translate(-1001.658 -682.531)"/><path class="b" d="M1399.928,912.439H1075.335a12.745,12.745,0,0,1-13.005-12.469V756.65a12.735,12.735,0,0,1,12.8-12.467l325.164-4.934c14.3-.217,26.017,10.839,26.017,24.552V887.145C1426.31,901.115,1414.5,912.439,1399.928,912.439Z" transform="translate(-1049.484 -727.34)"/><path class="c" d="M1388.669,730.615V709.786a27.282,27.282,0,0,0-27.717-27.252l-346.109,5.476a13.913,13.913,0,0,0-13.705,13.838v28.767Z" transform="translate(-1001.137 -682.531)"/><circle class="d" cx="5.075" cy="5.075" r="5.075" transform="translate(15.8 35.165) rotate(-76.717)"/></g><g transform="translate(52.287 62.303)"><g transform="translate(95.875 1.4) rotate(90)"><path class="c" d="M26.951,38.212A19.639,19.639,0,0,1,42.433,28.061L42.9,0A47.159,47.159,0,0,0,0,27.785Z" transform="translate(4.093)"/><path class="e" d="M0,28.017A20.5,20.5,0,0,1,16.882,46.211l27.665,1.647C44.2,23.2,25.016,2.516.467,0Z" transform="translate(51.881 0.257)"/><path class="c" d="M42.847,0A19.617,19.617,0,0,1,23.174,16.163a20.341,20.341,0,0,1-8.205-1.835L0,38.169a48.832,48.832,0,0,0,23.174,5.95A47.074,47.074,0,0,0,70.516,1.6Z" transform="translate(25.702 51.755)"/><path class="c" d="M21.081,54.271,36.089,30.412a20.278,20.278,0,0,1-7.415-15.628,19.8,19.8,0,0,1,.49-4.39L2.185,0A47.267,47.267,0,0,0,0,14.267,48.779,48.779,0,0,0,21.081,54.271Z" transform="translate(0 32.8)"/></g><g transform="translate(104.468 4.904)"><path class="e" d="M1791.611,1039.788a18.516,18.516,0,0,1,14.6-9.866l.442-27.25a44.467,44.467,0,0,0-40.441,27.01Z" transform="translate(-1762.352 -1002.672)"/><path class="c" d="M1980.8,1031.047a19.673,19.673,0,0,1,15.923,17.66l26.1,1.585c-.332-23.955-18.429-44.031-41.586-46.453Z" transform="translate(-1931.894 -1003.593)"/><path class="c" d="M1903.625,1242.027a18.581,18.581,0,0,1-26.292,13.926l-14.113,23.153a45,45,0,0,0,21.85,5.774c23.467.1,42.513-18.037,44.661-41.307Z" transform="translate(-1838.997 -1191.779)"/><path class="c" d="M1767.7,1207.208l14.148-23.17a19.942,19.942,0,0,1-6.528-19.433L1749.9,1154.53a47.174,47.174,0,0,0-2.059,13.85A47.748,47.748,0,0,0,1767.7,1207.208Z" transform="translate(-1747.836 -1122.65)"/></g><g transform="matrix(-0.259, 0.966, -0.966, -0.259, 301.013, 23.419)"><path class="c" d="M23.983,36.081a17.5,17.5,0,0,1,13.787-9.6L38.187,0C21.175.149,6.546,10.781,0,26.277Z" transform="translate(3.64 0)"/><path class="c" d="M0,26.445C8.042,27.908,14.3,34.978,15.044,43.6l24.67,1.528C39.4,21.839,22.294,2.335.416,0Z" transform="translate(46.181 0.233)"/><path class="e" d="M38.166,0c-1.457,8.78-8.732,15.381-17.53,15.272a17.257,17.257,0,0,1-7.308-1.726L0,36.05a41.563,41.563,0,0,0,20.636,5.608c22.172.1,40.172-17.542,42.2-40.167Z" transform="translate(22.868 48.826)"/><path class="c" d="M18.756,51.176,32.115,28.657A19.782,19.782,0,0,1,25.95,9.775L1.943,0A47.093,47.093,0,0,0,0,13.457,46.805,46.805,0,0,0,18.756,51.176Z" transform="translate(0 31.009)"/></g></g></g><g transform="translate(238.698 73.359)"><path class="f" d="M1133.047,3138.363s1.461,8.271,2.177,16.458a5.641,5.641,0,0,1-5.4,6.111c-10.9.454-34.223,1.337-42.591.964a1.835,1.835,0,0,1-1.615-2.514,4.109,4.109,0,0,1,2.1-2.214l38.522-17.7Z" transform="translate(-1004.558 -2741.995)"/><path class="g" d="M1102.793,3109.466l-1.174,9.893s-6.748,3.141-11.356-.4l2.794-11.024Z" transform="translate(-973.108 -2717.957)"/><path class="f" d="M959.569,2229.276c.507,2.583,2.722,128.916-10.783,185.53a1.921,1.921,0,0,0,1.127,2.235,33.461,33.461,0,0,0,11,2.235,3.31,3.31,0,0,0,3.283-2.376c3.86-13.135,22.357-78.947,24.77-141.815,2.7-70.249,0-2.392,0-2.392l-1.582-43.424Z" transform="translate(-830.765 -2023.75)"/><path class="f" d="M878.2,3158.915s2.325,4.175,4.577,15.27a3.441,3.441,0,0,1-3.028,4.121c-3.6.354-9.142.81-13.581.779a3.431,3.431,0,0,1-3.4-3.828c.492-4.049,2.024-10.693,6.756-15.872Z" transform="translate(-705.399 -2758.233)"/><path class="h" d="M885.971,3096.118l-2.743,14.96s-2.712,2.017-8.076.555l1.309-16.1Z" transform="translate(-711.128 -2708.159)"/><path class="f" d="M874.175,2221.449c11.045,66.654-2.4,164.741-6.928,183.939a2.994,2.994,0,0,1-2.417,2.273,20.11,20.11,0,0,1-8.638-.345,2.744,2.744,0,0,1-1.973-2.527c-.608-15.521.486-110.8-9.8-148.461a8.553,8.553,0,0,0-3.3-4.719l-19.974-14.2-1.531-22.953Z" transform="translate(-691.922 -2012.046)"/><g transform="translate(14.111 31.846)"><path class="i" d="M867.995,1625.789c33.1-.547,69.619,8.69,69.619,8.69,9.866,57.567,1.725,123.967,1.725,123.967-25.624,6.72-54.529-4.108-54.529-4.108-4.259-24.062-24.13-91.78-24.13-91.78-16.172-2.007-29.494-6.673-40.464-12.841,8.368-9.7,12.313-22.043,14.027-29.339C845.945,1624.015,857.786,1625.957,867.995,1625.789Z" transform="translate(-770.229 -1574.529)"/><path class="j" d="M1335.873,1404.484a6.333,6.333,0,0,1,7.367-2.069c4.871,20.574,30.41,37.256,56.647,45.41-1.714,7.3-5.659,19.639-14.027,29.339C1342.316,1452.681,1335.873,1404.484,1335.873,1404.484Z" transform="translate(-1335.873 -1401.975)"/></g><g transform="translate(0 0)"><path class="k" d="M1620.611,1285.63c-.34,1.082,3.6,2.728,5.919-1.7.081-2.12,1.37-11.2.1-12.93-6.747-9.2-19.828-20.729-19.828-20.729a3.113,3.113,0,0,0-.389,4.324l6.346,6.61c-1.328,2.4-2.947,4.423-3.705,7.324a8.891,8.891,0,0,0,.886,6.545c1.114,2.006,2.633,4.615,4.07,6.657A8.78,8.78,0,0,0,1620.611,1285.63Z" transform="translate(-1605.711 -1250.277)"/><path class="l" d="M1626.292,1322.795l5.783,4.9,1.815,4.881-5.156,5.72s-1.733-9.684-3.022-11.78S1625.092,1323.408,1626.292,1322.795Z" transform="translate(-1616.465 -1307.571)"/></g><path class="i" d="M671.985,1719.6l12.7-32.049s30.915,21.006,36,47.639a73.167,73.167,0,0,0-26.876,7.2C691.518,1729.815,671.985,1719.6,671.985,1719.6Z" transform="translate(-503.185 -1595.752)"/><path class="m" d="M673.222,1929.042s34.71,19.617,46.422,2.866a13.165,13.165,0,0,0,2.414-10.23,73.165,73.165,0,0,1,26.876-7.2,36.76,36.76,0,0,1-4,25.2c-20.515,37.528-76.31-2.074-76.31-2.074Z" transform="translate(-531.439 -1775.039)"/><g transform="translate(59.241 107.168)"><path class="n" d="M1099.12,1832.419l-18.944-66.155a1.929,1.929,0,0,0-1.632-1.389c-3.432-.4-13.377-1.525-24.86-2.5-13.832-1.17-29.894-2.118-39.493-1.312a1.935,1.935,0,0,0-1.582,2.785c5.458,11.043,27.91,55.962,39.153,70.677a1.941,1.941,0,0,0,1.562.767l43.952-.409A1.936,1.936,0,0,0,1099.12,1832.419Z" transform="translate(-1012.407 -1760.767)"/><path class="o" d="M1049.277,1941.056s2.639-10.851,1.574-14.7-3.127-8.8-10-7.7a100.564,100.564,0,0,0-14.984,4s.41,5.014,5.634,3.4l-3.24,2.507s.463,4.015,4.877,1.87l-3.014,3.325a3.512,3.512,0,0,0,5.142,1.182C1038.512,1932.817,1040.069,1942.362,1049.277,1941.056Z" transform="translate(-967.14 -1885.387)"/></g><path class="p" d="M986.373,1518.155l10.531,30.456a1.1,1.1,0,0,1-.5,1.321c-2.871,1.587-13.213,6.175-25.677-1.727a5.168,5.168,0,0,1-2.38-3.691l-3.41-26.36Z" transform="translate(-840.97 -1461.919)"/><g transform="translate(110.752 6.978)"><path class="q" d="M1015.919,1348.74c-.309.438-9.767,34.6-9.767,34.6l19.622,4.985,13.774-31.05S1021.095,1341.407,1015.919,1348.74Z" transform="translate(-1002.958 -1333.518)"/><path class="r" d="M988.042,1311.993l-5.971,16.912a2.467,2.467,0,0,1-.312.606c-.81,1.151-3.888,4.908-7.54,1.524-3.313-3.07-6.383-5.823-9.217-6.323a2.5,2.5,0,0,0-2.85,1.8,108.268,108.268,0,0,0-3.3,16.483,2.5,2.5,0,0,0,2.032,2.694c3.833.728,11.959,2.036,18.742,1.558a2.506,2.506,0,0,0,2.111-1.454c1.87-4.085,7.6-16.48,9.728-19.687,2-3.01,6.9-2.926,8.957-2.744a2.459,2.459,0,0,0,1.845-.6c1.8-1.577,5.222-5.6.406-10.42a2.509,2.509,0,0,1,.058-3.612c2.068-1.944,4.279-5.392.834-9.669-3.5-4.347-8.124-3.655-10.956-2.621a2.507,2.507,0,0,1-3.017-1.114,1.982,1.982,0,0,0-2.044-.956,2.468,2.468,0,0,1-2.633-2.531c.05-2.785-.947-6.3-5.778-7.806-8.572-2.668-13.917,5.613-14.447,11.792s8.929,8.543,14.49,8.127c4.229-.317,7.368,3.874,8.63,5.9A2.485,2.485,0,0,1,988.042,1311.993Z" transform="translate(-958.84 -1283.515)"/><path class="s" d="M978.175,1473.081s1.385-10.728,5.847-11.253,8.806,3.142,4.369,9.163C982.873,1478.48,978.175,1473.081,978.175,1473.081Z" transform="translate(-947.784 -1424.355)"/></g></g></g></svg>